<svg width="128" height="128" viewBox="0 0 128 128" fill="none" xmlns="http://www.w3.org/2000/svg" role="img" aria-label="FinSight">
  <defs>
    <linearGradient id="bg" x1="16" y1="14" x2="114" y2="118" gradientUnits="userSpaceOnUse">
      <stop stop-color="#0A1B18"/>
      <stop offset="1" stop-color="#020807"/>
    </linearGradient>
    <linearGradient id="signal" x1="30" y1="86" x2="102" y2="34" gradientUnits="userSpaceOnUse">
      <stop stop-color="#F59E0B"/>
      <stop offset=".55" stop-color="#2DD4BF"/>
      <stop offset="1" stop-color="#7CFFB2"/>
    </linearGradient>
    <filter id="shadow" x="0" y="0" width="128" height="128" color-interpolation-filters="sRGB">
      <feDropShadow dx="0" dy="8" stdDeviation="8" flood-color="#00110D" flood-opacity=".35"/>
    </filter>
  </defs>

  <rect x="10" y="10" width="108" height="108" rx="28" fill="url(#bg)" filter="url(#shadow)"/>
  <rect x="11.5" y="11.5" width="105" height="105" rx="26.5" stroke="#CFFAFE" stroke-opacity=".16" stroke-width="3"/>

  <path d="M35 92V35H72" stroke="#F59E0B" stroke-width="8" stroke-linecap="round" stroke-linejoin="round"/>
  <path d="M35 61H63" stroke="#F59E0B" stroke-width="8" stroke-linecap="round"/>
  <path d="M35 92H95" stroke="#F59E0B" stroke-width="8" stroke-linecap="round"/>

  <path d="M39 83C50 76 55 68 64 69C73 70 75 49 84 48C91 47 94 38 101 34" stroke="url(#signal)" stroke-width="7" stroke-linecap="round" stroke-linejoin="round"/>
  <circle cx="64" cy="69" r="7" fill="#06110F" stroke="#2DD4BF" stroke-width="4"/>
  <circle cx="84" cy="48" r="7" fill="#06110F" stroke="#7CFFB2" stroke-width="4"/>

  <path d="M51 95H92" stroke="#CFFAFE" stroke-opacity=".22" stroke-width="3" stroke-linecap="round"/>
</svg>
